<svg xmlns="http://www.w3.org/2000/svg" width="32" height="32" viewBox="0 0 32 32" fill="none">
  <path d="M9.50048 6C8.18048 6 7.00448 6.86 6.62548 8.125L5.25048 12.719L3.31248 12.063L2.68848 13.937L4.65648 14.594L4.03148 16.719C4.0075 16.8107 3.99706 16.9053 4.00048 17V25C4.00048 25.55 4.45048 26 5.00048 26H8.00048L8.65648 24H13.9065L23.8445 25.531L24.0005 26H27.0315C27.2735 26 27.5085 25.91 27.6885 25.75L27.7185 25.719C27.7305 25.707 27.7425 25.699 27.7505 25.687C27.9037 25.5139 27.992 25.293 28.0005 25.062V24.969C28.0044 24.9274 28.0044 24.8856 28.0005 24.844L27.1565 19H29.0005V17H26.6255L24.5005 12.656L25.3755 9.719C25.4367 9.52334 25.4365 9.31363 25.375 9.11805C25.3135 8.92248 25.1937 8.75042 25.0315 8.625L23.0945 7.187C22.9474 7.08126 22.7748 7.0167 22.5945 7L9.56248 6H9.50048ZM9.50048 8L22.1255 8.969L23.2505 9.813L22.4695 12.437C22.3916 12.6855 22.4138 12.9546 22.5315 13.187L24.0315 16.25L17.9065 14.125L17.7815 14.062H17.6565L7.22048 13.095L8.53048 8.719C8.66048 8.289 9.05448 8 9.49948 8H9.50048ZM6.62548 15.063L17.4065 16.063H17.4695L25.0945 18.75L25.8125 23.781L14.2205 22C14.1686 21.9961 14.1164 21.9961 14.0645 22H12.9075L13.3455 21L17.6575 21.625L20.2505 22L19.0005 20L12.0005 19L10.7505 22H6.00048V17.187L6.62548 15.063ZM8.50048 16C8.10265 16 7.72112 16.158 7.43982 16.4393C7.15851 16.7206 7.00048 17.1022 7.00048 17.5C7.00048 17.8978 7.15851 18.2794 7.43982 18.5607C7.72112 18.842 8.10265 19 8.50048 19C8.8983 19 9.27983 18.842 9.56114 18.5607C9.84244 18.2794 10.0005 17.8978 10.0005 17.5C10.0005 17.1022 9.84244 16.7206 9.56114 16.4393C9.27983 16.158 8.8983 16 8.50048 16ZM20.8755 18.75C20.7138 19.2017 20.7382 19.699 20.9433 20.1327C21.1484 20.5664 21.5173 20.9009 21.969 21.0625C22.4206 21.2241 22.918 21.1998 23.3517 20.9947C23.7854 20.7896 24.1198 20.4207 24.2815 19.969L20.8755 18.75Z" fill="currentColor"/>
</svg>