<svg xmlns="http://www.w3.org/2000/svg" width="32" height="32" viewBox="0 0 32 32" fill="none">
  <path d="M27.38 28H20.618L24 21.236L27.38 28ZM24 18C23.8142 17.9999 23.632 18.0516 23.4739 18.1493C23.3158 18.247 23.1881 18.3868 23.105 18.553L18.105 28.553C18.0288 28.7055 17.9928 28.8749 18.0006 29.0452C18.0083 29.2155 18.0594 29.381 18.1491 29.526C18.2387 29.671 18.364 29.7907 18.5129 29.8736C18.6619 29.9566 18.8295 30.0001 19 30H29C29.1651 30 29.3277 29.9592 29.4732 29.8811C29.6187 29.8029 29.7426 29.69 29.8338 29.5523C29.925 29.4147 29.9807 29.2566 29.9959 29.0921C30.0111 28.9277 29.9854 28.7621 29.921 28.61L24.894 18.553C24.811 18.3869 24.6834 18.2472 24.5255 18.1496C24.3676 18.0519 24.1857 18.0001 24 18ZM16 23C15.6022 23 15.2206 23.158 14.9393 23.4393C14.658 23.7206 14.5 24.1022 14.5 24.5C14.5 24.8978 14.658 25.2794 14.9393 25.5607C15.2206 25.842 15.6022 26 16 26C16.3978 26 16.7794 25.842 17.0607 25.5607C17.342 25.2794 17.5 24.8978 17.5 24.5C17.5 24.1022 17.342 23.7206 17.0607 23.4393C16.7794 23.158 16.3978 23 16 23ZM15 12H17V21H15V12Z" fill="#B40000"/>
  <path d="M14.9996 30H2.9996C2.82787 29.9999 2.65904 29.9556 2.5094 29.8714C2.35975 29.7871 2.23433 29.6658 2.1452 29.519C2.05608 29.3722 2.00626 29.2049 2.00055 29.0333C1.99484 28.8616 2.03343 28.6914 2.1126 28.539L15.1126 3.539C15.2846 3.208 15.6426 3 15.9996 3C16.3566 3 16.7146 3.208 16.8866 3.539L22.8866 15.077L21.1126 16L15.9996 6.168L4.6466 28H14.9996V30Z" fill="#B40000"/>
</svg>