<svg xmlns="http://www.w3.org/2000/svg" width="20" height="20" viewBox="0 0 20 20" fill="none">
  <g clip-path="url(#clip0_1698_2252)">
    <path d="M18.2265 0.754883H1.77495C1.21145 0.754883 0.754639 1.21169 0.754639 1.7752V18.2268C0.754639 18.7903 1.21145 19.2471 1.77495 19.2471H18.2265C18.79 19.2471 19.2468 18.7903 19.2468 18.2268V1.7752C19.2468 1.21169 18.79 0.754883 18.2265 0.754883Z" fill="#3D5A98"/>
    <path d="M13.5125 19.2451V12.0842H15.9157L16.275 9.29354H13.5125V7.51229C13.5125 6.70448 13.7375 6.15291 14.8954 6.15291H16.3735V3.65291C15.6577 3.57832 14.9384 3.54285 14.2188 3.54666C12.0907 3.54666 10.625 4.84354 10.625 7.23573V9.29354H8.22192V12.0842H10.625V19.2451H13.5125Z" fill="white"/>
  </g>
  <defs>
    <clipPath id="clip0_1698_2252">
      <rect width="20" height="20" fill="white"/>
    </clipPath>
  </defs>
</svg>