<svg xmlns="http://www.w3.org/2000/svg" width="48" height="48" viewBox="0 0 48 48" fill="none">
  <path d="M14.5398 20.0187C12.8518 17.9437 11.2678 17.4977 9.7858 18.6817C7.5628 20.4577 6.9248 26.6497 8.7128 32.1087C10.5018 37.5677 13.9798 45.0017 21.0018 45.0017C28.0228 45.0017 29.6838 37.5217 32.5478 32.9997C35.4128 28.4777 36.9278 24.1147 34.1208 18.6817" stroke="currentColor" stroke-width="4" stroke-linecap="round" stroke-linejoin="round"/>
  <path d="M11.0001 18.0367C9.67809 16.0169 8.34473 14.0045 7.00008 11.9997C5.55408 9.8547 9.25108 7.0817 11.0001 8.9677C12.1661 10.2257 13.7151 12.0777 15.6471 14.5247" stroke="currentColor" stroke-width="4" stroke-linecap="round"/>
  <path d="M15.0238 25.6399C14.5388 19.5759 14.9338 15.6279 16.2058 13.7949C18.1158 11.0449 21.6628 10.0029 25.0038 10.0029C26.9918 10.0029 28.8088 10.8499 30.4518 12.5439" stroke="currentColor" stroke-width="4" stroke-linecap="round" stroke-linejoin="round"/>
  <path d="M41.0002 12.6128C41.5862 14.6488 40.6302 16.5098 37.6842 16.9308C34.7392 17.3518 32.5312 18.8328 30.9392 20.0788C29.3462 21.3248 26.4992 25.1049 25.9362 27.0019C25.3742 28.8999 22.1602 27.1548 21.2972 26.3968C20.4342 25.6398 19.5852 23.9808 21.2972 22.2458C23.0092 20.5108 22.6382 20.1648 22.6382 18.4058C22.6382 16.6458 32.0002 10.8258 37.2732 10.2938C38.4452 10.2258 40.4152 10.5758 41.0002 12.6128Z" stroke="currentColor" stroke-width="4"/>
  <path d="M23.0078 3.99991V9.26291M20.3068 10.7179C17.2888 6.92491 14.8558 4.80791 13.0068 4.36791M17.0038 7.02891L17.9938 2.96191M35.6128 10.7179C35.2908 11.8219 35.2908 12.8579 35.6128 13.8239C35.9348 14.7909 36.6258 15.8259 37.6838 16.9309" stroke="currentColor" stroke-width="4" stroke-linecap="round"/>
</svg>