<svg xmlns="http://www.w3.org/2000/svg" width="43" height="43" viewBox="0 0 43 43" fill="none">
  <path d="M33.8796 32.501L33.6423 41.1339H32.1649L31.2206 31.5142L33.8796 32.501Z" fill="#FFDCB9"/>
  <path d="M32.1549 41.0363C32.1549 41.0363 31.6577 41.4807 30.6397 41.8068C30.4149 41.8788 30.259 42.3227 31.4656 42.1331C32.6721 41.9434 33.4629 41.5999 33.642 41.1339C33.8211 40.6677 32.1549 41.0363 32.1549 41.0363Z" fill="#FFDCB9"/>
  <path d="M33.6439 41.0866C33.6439 41.0866 33.7736 41.0414 33.801 41.1734C33.8285 41.3055 33.8743 42.5763 33.801 42.5928C33.7276 42.6094 33.5901 42.6836 33.5351 42.4856C33.4802 42.2875 33.5443 42.04 33.4251 42.04C33.306 42.04 32.6826 42.7132 31.6283 42.7874C30.6874 42.8537 29.7215 42.8322 29.5748 42.7167C29.4281 42.6012 29.4614 42.445 29.8256 42.1992C30.229 41.9269 31.2895 41.5645 31.2895 41.5645C31.2895 41.5645 31.2068 42.3052 32.2791 41.8667C33.0352 41.5575 33.3872 41.3754 33.6439 41.0866Z" fill="#4D4D4F"/>
  <path d="M35.4492 32.501L35.6866 41.1339H37.1639L38.1083 31.5142L35.4492 32.501Z" fill="#FFDCB9"/>
  <path d="M37.1736 41.0362C37.1736 41.0362 37.6709 41.4807 38.6888 41.8067C38.9136 41.8787 39.0696 42.3226 37.8631 42.133C36.6566 41.9434 35.8658 41.5999 35.6867 41.1338C35.5076 40.6677 37.1736 41.0362 37.1736 41.0362Z" fill="#FFDCB9"/>
  <path d="M35.6851 41.0866C35.6851 41.0866 35.5554 41.0414 35.528 41.1734C35.5005 41.3055 35.4547 42.5763 35.528 42.5928C35.6014 42.6094 35.7389 42.6836 35.7938 42.4856C35.8488 42.2875 35.7847 42.04 35.9039 42.04C36.023 42.04 36.6464 42.7132 37.7007 42.7874C38.6416 42.8537 39.6075 42.8322 39.7542 42.7167C39.9008 42.6012 39.8674 42.445 39.5032 42.1992C39.0999 41.9269 38.0395 41.5645 38.0395 41.5645C38.0395 41.5645 38.1222 42.3052 37.0499 41.8667C36.2939 41.5575 35.9418 41.3754 35.6851 41.0866Z" fill="#4D4D4F"/>
  <path d="M42.6139 23.6743C42.6139 23.6743 43.1027 25.046 42.9805 25.6743C42.8582 26.3026 41.916 26.9727 41.6717 26.1246C41.4274 25.2765 41.2064 23.8 41.2064 23.8L42.6139 23.6743Z" fill="#FFDCB9"/>
  <path d="M34.009 3.20868C34.009 3.20868 33.2229 2.93581 32.4945 3.20868C31.7661 3.48154 30.8153 4.32741 30.5026 6.42832C30.1898 8.52923 29.9171 9.23866 29.7048 9.92083C29.4927 10.603 27.7391 14.3502 31.0179 14.8595C33.5769 15.2568 33.8271 12.7753 33.7361 10.243C33.6453 7.71075 34.009 3.20868 34.009 3.20868Z" fill="#422C19"/>
  <path d="M35.8303 10.3174L34.498 10.5399L33.1658 10.3174C33.1658 10.3174 32.7648 11.3369 32.2831 12.017C32.2831 12.017 32.4706 14.822 34.4982 14.2194C36.5256 14.822 36.7131 12.017 36.7131 12.017C36.2313 11.3367 35.8303 10.3174 35.8303 10.3174Z" fill="#FFDCB9"/>
  <path d="M37.6945 11.9116C37.6945 11.9116 36.5134 13.8763 34.7391 13.7915C32.9648 13.8763 31.7838 11.9116 31.7838 11.9116L31.6616 21.8327H37.8167L37.6945 11.9116Z" fill="#FF5050"/>
  <path d="M39.8691 21.2583H34.7457H34.579H29.4556C29.4556 21.2583 29.2605 23.6789 29.4556 26.0213C29.6507 28.3636 31.0543 33.4087 31.0543 33.4087H34.579H34.7457H38.2704C38.2704 33.4087 39.6738 28.3636 39.8691 26.0213C40.0643 23.6789 39.8691 21.2583 39.8691 21.2583Z" fill="#4D4D4F"/>
  <path d="M36.0667 11.2056L36.5358 20.8318V20.8329L36.9505 29.3219C36.9505 29.3219 40.6277 29.9417 42.1214 28.2872C42.1214 28.2872 40.2991 16.9754 39.3759 14.0107C39.023 12.8775 38.5727 11.7098 36.3661 11.2602C36.2655 11.2384 36.166 11.2209 36.0667 11.2056Z" fill="white"/>
  <path d="M36.0667 11.2056L36.5358 20.8318C36.565 20.7794 38.4151 17.347 38.3727 16.5656C38.329 15.7765 36.9858 14.1033 36.9858 14.1033C36.9858 14.1033 37.4113 13.4878 37.7095 13.036C37.9338 12.6977 36.8984 11.7252 36.3661 11.2602C36.2655 11.2384 36.166 11.2209 36.0667 11.2056Z" fill="#E2E5E5"/>
  <path d="M38.0045 23.9636C37.9479 23.9636 37.8961 23.9295 37.8808 23.8779C37.8626 23.8163 37.9032 23.7531 37.9716 23.7368C38.1957 23.6829 40.4371 23.2844 40.5324 23.2674C40.6015 23.2548 40.6691 23.2956 40.683 23.3582C40.6966 23.4208 40.6515 23.4814 40.582 23.4938C40.5587 23.4978 38.2537 23.9077 38.0377 23.9595C38.0265 23.9623 38.0155 23.9636 38.0045 23.9636Z" fill="#E2E5E5"/>
  <path d="M36.8376 11.8034C36.8376 11.8034 38.7371 11.6011 40.192 14.4489C41.6469 17.2969 42.9805 23.848 42.9805 23.848L41.3898 24.4852L36.8376 11.8034Z" fill="white"/>
  <path d="M41.8617 24.2965L41.3898 24.4857C41.3898 24.4857 41.3898 24.4835 41.3885 24.4813C41.3885 24.4802 41.3873 24.4781 41.3873 24.4758C41.3103 24.1732 39.6598 17.6742 39.2758 16.6001C39.095 16.0928 40.9767 20.1099 41.8617 24.2965Z" fill="#E2E5E5"/>
  <path d="M33.8572 2.85404C34.561 2.59559 36.6837 2.90856 37.8013 4.35469C38.919 5.80081 39.8639 8.1008 40.08 9.48147C40.62 12.9313 39.7373 15.074 38.525 15.949C37.3125 16.8241 33.9682 15.9396 35.587 12.7858C36.5458 10.918 35.7433 10.0573 35.7433 10.0573C35.7433 10.0573 31.5536 3.6999 33.8572 2.85404Z" fill="#422C19"/>
  <path d="M32.7648 11.2056L32.2956 20.8318V20.8329L31.881 29.3219C31.881 29.3219 28.2038 29.9419 26.7101 28.2872C26.7101 28.2872 27.0352 17.0537 27.9585 14.089C28.3114 12.9558 30.2589 11.7097 32.4655 11.2601C32.566 11.2384 32.6653 11.2209 32.7648 11.2056Z" fill="white"/>
  <path d="M32.7645 11.2056L32.2953 20.8318C32.2662 20.7794 30.4161 17.347 30.4585 16.5656C30.5022 15.7765 31.8454 14.1033 31.8454 14.1033C31.8454 14.1033 31.4199 13.4878 31.1217 13.036C30.8974 12.6977 31.9328 11.7252 32.4651 11.2602C32.5657 11.2384 32.665 11.2209 32.7645 11.2056Z" fill="#E2E5E5"/>
  <path d="M30.7318 23.9634C30.7208 23.9634 30.7098 23.9621 30.6987 23.9594C30.4827 23.9076 28.1776 23.4977 28.1543 23.4937C28.0849 23.4813 28.0397 23.4206 28.0533 23.3582C28.0671 23.2957 28.1347 23.255 28.2039 23.2674C28.2993 23.2843 30.5406 23.6829 30.7648 23.7367C30.8331 23.753 30.8738 23.8162 30.8555 23.8779C30.8402 23.9294 30.7884 23.9634 30.7318 23.9634Z" fill="#E2E5E5"/>
  <path d="M37.5233 7.41675C37.5208 8.18826 37.4426 9.89857 36.824 10.5875C35.8557 11.6639 33.3628 11.8081 32.1316 10.4576C31.4849 9.74659 31.381 8.26081 31.3761 7.45303C31.4189 7.46407 31.469 7.46182 31.5277 7.44424C32.2893 7.22196 32.9215 6.56819 32.7649 5.74609C32.7649 5.74609 35.3324 7.63137 37.5183 7.42115C37.5183 7.42115 37.5197 7.42002 37.5233 7.41675Z" fill="#FFDCB9"/>
  <path d="M37.5236 7.41664C37.5236 7.55195 37.5199 7.71598 37.5126 7.89872C37.4893 8.46 37.4208 9.19298 37.2326 9.79279V9.79391C37.1336 10.112 37.0003 10.3905 36.8242 10.5874C36.6494 10.7811 36.4269 10.944 36.1689 11.0739C35.9636 10.6568 35.8303 10.3178 35.8303 10.3178L34.4976 10.5401L33.1663 10.3178C33.1663 10.3178 33.044 10.627 32.8545 11.0178C32.5868 10.8725 32.341 10.6865 32.132 10.4576C31.9731 10.2826 31.8472 10.0614 31.7482 9.81487C31.5036 9.21292 31.4156 8.46113 31.3875 7.87123C31.3801 7.71936 31.3777 7.57853 31.3765 7.45303C31.4193 7.46407 31.4693 7.46182 31.528 7.44424C32.2897 7.22196 32.9218 6.56819 32.7653 5.74609C32.7653 5.74609 35.3328 7.63137 37.5187 7.42115C37.5187 7.42115 37.52 7.41991 37.5236 7.41664Z" fill="#FFDCB9"/>
  <path d="M36.0581 11.1281C36.0556 11.3372 36.0263 11.5772 35.9542 11.8501C34.9651 12.1561 33.7486 12.1231 32.7437 11.6618L32.7657 11.2062C32.7644 11.2062 32.762 11.2062 32.7608 11.2073C32.7938 11.1424 32.8256 11.0797 32.8549 11.0181C33.8415 11.5563 35.1349 11.5475 36.0581 11.1281Z" fill="#F7BC86"/>
  <path d="M37.6893 8.24408C37.6651 8.24408 37.6431 8.22932 37.637 8.20724C37.6298 8.18121 37.6475 8.15485 37.6764 8.14843C37.676 8.14843 37.7508 8.1242 37.8377 7.97639C37.9192 7.83782 37.7376 7.69632 37.7357 7.69496C37.7131 7.67761 37.7102 7.64697 37.7293 7.62658C37.7486 7.60619 37.7823 7.60348 37.8052 7.62083C37.8154 7.62861 38.0552 7.81393 37.9329 8.02191C37.8216 8.2114 37.7141 8.24013 37.7022 8.24284C37.698 8.24363 37.6937 8.24408 37.6893 8.24408Z" fill="#E0AD83"/>
  <path d="M37.3199 7.44477C37.3199 7.44477 37.7841 6.97339 38.211 7.40252C38.6789 7.87266 37.8164 8.9025 37.3148 8.64225L37.3199 7.44477Z" fill="#F7BC86"/>
  <path d="M31.5284 7.44477C31.5284 7.44477 31.0642 6.97339 30.6373 7.40252C30.1695 7.87266 31.0319 8.9025 31.5334 8.64225L31.5284 7.44477Z" fill="#F7BC86"/>
  <path d="M36.3442 19.8721L32.7755 16.5722C32.3922 16.2177 31.762 16.2101 31.3683 16.5552L26.414 20.8971C26.0202 21.2422 26.0118 21.8094 26.3951 22.1638L29.9639 25.4637C30.3472 25.8182 30.9773 25.8258 31.3711 25.4807L36.3254 21.1388C36.7192 20.7938 36.7276 20.2265 36.3442 19.8721Z" fill="#EA7C0F"/>
  <g opacity="0.5">
    <path opacity="0.47" d="M34.2324 8.8245C34.2324 9.37812 33.2605 9.82606 32.0623 9.82606C31.9559 9.82606 31.8508 9.8228 31.748 9.81502C31.5035 9.21307 31.4155 8.46128 31.3873 7.87139C31.6001 7.83838 31.8262 7.8208 32.0622 7.8208C33.2604 7.8208 34.2324 8.26976 34.2324 8.8245Z" fill="url(#paint0_radial_1698_1833)"/>
    <path opacity="0.47" d="M37.5125 7.89899C37.4892 8.46027 37.4208 9.19324 37.2326 9.79305V9.79418C37.0541 9.81514 36.8682 9.82606 36.6762 9.82606C35.4769 9.82606 34.5061 9.37812 34.5061 8.8245C34.5061 8.26976 35.4769 7.8208 36.6762 7.8208C36.9732 7.82091 37.2557 7.8484 37.5125 7.89899Z" fill="url(#paint1_radial_1698_1833)"/>
  </g>
  <path d="M28.7346 12.9038C28.7346 12.9038 24.9595 16.4484 26.2254 20.2849C26.8295 22.116 31.5731 24.1575 31.5731 24.1575L32.8365 22.8735L28.7588 19.551L29.5542 14.9375L28.7346 12.9038Z" fill="white"/>
  <path d="M31.5728 24.1571C31.5728 24.1571 32.7342 25.7714 33.692 25.2761C34.0794 25.0757 34.7108 24.1939 34.6904 23.9921C34.67 23.7903 33.6309 23.4051 33.6309 23.4051C33.6309 23.4051 34.5683 22.9832 34.446 22.8731C34.3237 22.7631 32.8363 22.8731 32.8363 22.8731L31.5728 24.1571Z" fill="#FFDCB9"/>
  <path d="M34.0766 7.58333C33.6973 7.3303 33.1751 7.3303 32.7957 7.58333C32.7242 7.63088 32.7075 7.71008 32.751 7.74681C32.7557 7.75109 32.7605 7.75526 32.7651 7.75954C32.8085 7.7966 32.8833 7.79029 32.9367 7.75514C33.2326 7.55787 33.6397 7.55787 33.9355 7.75514C33.989 7.79041 34.0636 7.7966 34.1071 7.75954C34.1119 7.75526 34.1166 7.75109 34.1213 7.74681C34.1648 7.71008 34.1481 7.63088 34.0766 7.58333Z" fill="#3E2722"/>
  <path d="M33.6168 8.1258C33.6168 8.22866 33.524 8.31214 33.4098 8.31214C33.2955 8.31214 33.2028 8.22877 33.2028 8.1258C33.2028 8.02282 33.2955 7.93945 33.4098 7.93945C33.5242 7.93945 33.6168 8.02282 33.6168 8.1258Z" fill="#3E2722"/>
  <path d="M36.283 7.58333C35.9037 7.3303 35.3815 7.3303 35.0021 7.58333C34.9306 7.63088 34.914 7.71008 34.9574 7.74681C34.9622 7.75109 34.9668 7.75526 34.9715 7.75954C35.015 7.7966 35.0897 7.79029 35.1431 7.75514C35.439 7.55787 35.8461 7.55787 36.142 7.75514C36.1954 7.79041 36.27 7.7966 36.3135 7.75954C36.3183 7.75526 36.3229 7.75109 36.3277 7.74681C36.3711 7.71008 36.3545 7.63088 36.283 7.58333Z" fill="#3E2722"/>
  <path d="M35.8137 8.1258C35.8137 8.22866 35.7209 8.31214 35.6067 8.31214C35.4924 8.31214 35.3997 8.22877 35.3997 8.1258C35.3997 8.02282 35.4923 7.93945 35.6067 7.93945C35.721 7.93945 35.8137 8.02282 35.8137 8.1258Z" fill="#3E2722"/>
  <path d="M34.7931 9.16725C34.7931 9.08343 34.644 8.93066 34.4599 8.93066C34.2758 8.93066 34.1266 9.08343 34.1266 9.16725C34.1266 9.25107 34.2758 9.2673 34.4599 9.2673C34.644 9.26718 34.7931 9.25096 34.7931 9.16725Z" fill="#EAA757"/>
  <path d="M34.0796 9.96178C34.3762 10.1401 34.7728 10.1094 35.031 9.88798C35.0642 9.85982 35.1144 9.85171 35.1459 9.87469C35.1774 9.89756 35.1734 9.94938 35.1326 9.9842C34.8245 10.2483 34.3514 10.2851 33.9976 10.0723C33.9508 10.0442 33.9369 9.99377 33.9637 9.9664C33.9907 9.93891 34.0417 9.93913 34.0796 9.96178Z" fill="#3E2722"/>
  <path d="M32.3202 23.3974L32.8362 22.8735L32.3214 23.3974H32.3202Z" fill="#C6640C"/>
  <path d="M33.077 22.8577C32.9315 22.8665 32.8363 22.8731 32.8363 22.8731L28.7589 19.5505L28.9032 18.7163L30.0684 17.6938C29.8459 18.1594 29.3959 19.2588 29.8715 19.709C30.3213 20.1338 32.1467 21.9365 33.077 22.8577Z" fill="#C6640C"/>
  <path d="M9.08107 41.2186C9.08107 41.2186 7.57111 41.7069 6.66212 41.8653C6.65299 41.8669 6.64398 41.8686 6.63509 41.8703C5.90958 42.0123 6.03361 42.9798 6.77614 42.9798H10.04C10.1996 42.9798 10.3471 42.9033 10.4271 42.779L10.558 42.5757C10.5694 42.558 10.5903 42.5472 10.6129 42.5472H10.8426C10.8748 42.5472 10.9018 42.5687 10.9057 42.5974L10.9456 42.8898C10.9542 42.9528 11.0138 43.0003 11.0844 43.0003H11.8871C12.038 43.0003 12.1604 42.89 12.1602 42.7541L12.1581 41.3611L10.3564 40.8096L9.08107 41.2186Z" fill="#422C19"/>
  <path d="M19.5117 41.2186C19.5117 41.2186 21.0217 41.7069 21.9307 41.8653C21.9398 41.8669 21.9488 41.8686 21.9576 41.8703C22.6832 42.0123 22.5591 42.9798 21.8166 42.9798H18.5527C18.3931 42.9798 18.2456 42.9033 18.1656 42.779L18.0347 42.5757C18.0233 42.558 18.0024 42.5472 17.9798 42.5472H17.7501C17.7179 42.5472 17.6909 42.5687 17.687 42.5974L17.6471 42.8898C17.6385 42.9528 17.579 43.0003 17.5083 43.0003H16.7056C16.5545 43.0003 16.4322 42.89 16.4325 42.7541L16.4346 41.3611L18.2364 40.8096L19.5117 41.2186Z" fill="#422C19"/>
  <path d="M18.6992 20.0664H14.6805H13.9285H9.90986L8.74719 41.3609H12.1586L13.646 25.5406C13.6749 25.2326 13.9612 24.9958 14.3046 24.9958C14.648 24.9958 14.9342 25.2326 14.9631 25.5406L16.4505 41.3609H19.8619L18.6992 20.0664Z" fill="#4D4D4F"/>
  <path d="M14.6805 20.0664H13.9284H13.2156V23.2177L14.3975 24.0623V22.7253L14.7702 20.0664H14.6805Z" fill="#2A2A2D"/>
  <path d="M0.988892 16.8832C0.988892 16.8832 2.4717 22.1139 4.07728 22.3203C7.08757 22.7074 9.43318 19.2586 9.43318 19.2586L7.43938 12.7129C7.43938 12.7129 4.74184 18.5724 4.27277 18.9947C3.8037 19.4169 1.98573 15.0092 1.98573 15.0092L0.988892 16.8832Z" fill="white"/>
  <path d="M17.0334 11.4126L14.3904 11.5516L11.7475 11.4126L10.6415 20.6448H14.3834H14.3974H18.1395L17.0334 11.4126Z" fill="#55C1BC"/>
  <path d="M16.388 10.249C16.388 10.249 15.3319 11.4461 14.3973 11.5224C14.3973 11.5224 15.5878 12.8253 15.9477 12.8033C16.3831 12.7767 17.9602 11.0598 17.5193 10.5175C17.4312 10.4092 16.388 10.249 16.388 10.249Z" fill="#81D1CC"/>
  <path d="M12.4069 10.249C12.4069 10.249 13.4631 11.4461 14.3976 11.5224C14.3976 11.5224 13.2071 12.8253 12.8472 12.8033C12.4118 12.7767 10.8346 11.0598 11.2757 10.5175C11.3638 10.4092 12.4069 10.249 12.4069 10.249Z" fill="#81D1CC"/>
  <path d="M16.6758 10.2886L17.1689 20.4057V20.4068L17.6047 29.3287C17.6047 29.3287 21.4695 29.9802 23.0393 28.2413C23.0393 28.2413 21.1241 16.3526 20.1538 13.2367C19.7828 12.0456 19.3096 10.8184 16.9904 10.3458C16.8847 10.3229 16.7803 10.3047 16.6758 10.2886Z" fill="white"/>
  <path d="M16.6758 10.2886L17.1689 20.4057C17.1994 20.3506 19.1439 16.7431 19.0994 15.9218C19.0534 15.0925 17.6416 13.3339 17.6416 13.3339C17.6416 13.3339 18.0889 12.687 18.4023 12.212C18.638 11.8565 17.5497 10.8344 16.9904 10.3458C16.8847 10.3229 16.7803 10.3047 16.6758 10.2886Z" fill="#E2E5E5"/>
  <path d="M18.813 23.6869C18.7587 23.6869 18.709 23.6542 18.6942 23.6048C18.6768 23.5457 18.7157 23.4851 18.7813 23.4693C19.0165 23.4129 21.3718 22.994 21.472 22.9763C21.5388 22.9642 21.6033 23.0035 21.6164 23.0634C21.6295 23.1234 21.5862 23.1816 21.5197 23.1934C21.4951 23.1978 19.0722 23.6286 18.8448 23.6833C18.8341 23.6856 18.8234 23.6869 18.813 23.6869Z" fill="#E2E5E5"/>
  <path d="M12.1648 10.2886L11.6717 20.4057V20.4068L11.2359 29.3287C11.2359 29.3287 7.37106 29.9802 5.80127 28.2413C5.80127 28.2413 6.14306 16.4349 7.11337 13.3191C7.48432 12.128 9.53106 10.8184 11.8501 10.3458C11.9558 10.3229 12.0603 10.3047 12.1648 10.2886Z" fill="white"/>
  <path d="M10.0277 23.6865C10.0172 23.6865 10.0065 23.6853 9.9959 23.6828C9.7685 23.6282 7.34555 23.1973 7.32102 23.1929C7.25443 23.1811 7.21113 23.123 7.22427 23.0629C7.23729 23.0031 7.30174 22.9637 7.3687 22.9758C7.46882 22.9936 9.82419 23.4124 10.0594 23.4688C10.1249 23.4846 10.1639 23.5452 10.1465 23.6043C10.1317 23.6538 10.0819 23.6865 10.0277 23.6865Z" fill="#E2E5E5"/>
  <path d="M12.1644 10.2886L11.6713 20.4057C11.6408 20.3506 9.69631 16.7431 9.74087 15.9218C9.7868 15.0925 11.1986 13.3339 11.1986 13.3339C11.1986 13.3339 10.7513 12.687 10.438 12.212C10.2022 11.8565 11.2904 10.8344 11.8498 10.3458C11.9554 10.3229 12.0599 10.3047 12.1644 10.2886Z" fill="#E2E5E5"/>
  <path d="M15.1349 12.2599L14.6517 12.6823V12.6833L14.4851 12.8279L14.3984 12.904L14.3421 12.8544L14.1556 12.6929L14.1451 12.6823L13.6619 12.2599C14.0313 11.921 14.3761 11.5462 14.3973 11.523L14.3984 11.522C14.3984 11.522 14.3984 11.522 14.3995 11.523C14.4207 11.5462 14.7655 11.921 15.1349 12.2599Z" fill="#D61D2F"/>
  <path d="M14.6274 12.5166L14.3975 12.5739L14.1677 12.5166L12.9375 21.1591L14.3975 22.3205L15.8577 21.1591L14.6274 12.5166Z" fill="#D61D2F"/>
  <path d="M14.6395 12.6025L14.1423 12.695L14.1135 12.897L14.6668 12.7941L14.6395 12.6025Z" fill="#FF5A72"/>
  <path d="M14.7768 13.5645L13.9981 13.7094L13.9694 13.9115L14.804 13.7561L14.7768 13.5645Z" fill="#FF5A72"/>
  <path d="M14.9143 14.5264L13.8542 14.7236L13.8256 14.9256L14.9415 14.718L14.9143 14.5264Z" fill="#FF5A72"/>
  <path d="M15.0503 15.4883L13.7091 15.7379L13.6803 15.9399L15.0776 15.6798L15.0503 15.4883Z" fill="#FF5A72"/>
  <path d="M15.1875 16.4507L13.5649 16.7527L13.5361 16.9546L15.2148 16.6422L15.1875 16.4507Z" fill="#FF5A72"/>
  <path d="M15.3246 17.4126L13.4206 17.7669L13.392 17.9689L15.3519 17.6041L15.3246 17.4126Z" fill="#FF5A72"/>
  <path d="M15.4615 18.3745L13.2762 18.7812L13.2474 18.9832L15.4887 18.566L15.4615 18.3745Z" fill="#FF5A72"/>
  <path d="M15.5983 19.3364L13.1317 19.7955L13.1029 19.9974L15.6256 19.528L15.5983 19.3364Z" fill="#FF5A72"/>
  <path d="M15.7353 20.2988L12.9873 20.8102L12.9585 21.0122L15.7625 20.4904L15.7353 20.2988Z" fill="#FF5A72"/>
  <path d="M19.3121 22.2285L20.0474 17.068L18.4629 13.0698L20.7899 17.2421L19.3121 22.2285Z" fill="#E2E5E5"/>
  <path d="M18.5504 10.9077C18.5504 10.9077 23.3504 13.2405 23.4514 17.2417C23.4995 19.1513 21.4953 22.3592 21.4953 22.3592L19.3117 22.229L20.7901 17.2417L18.4625 13.0696L18.5504 10.9077Z" fill="white"/>
  <path d="M22.0411 22.3604L21.5719 22.9538L20.4131 23.2832L20.4705 22.2982L21.4955 22.3595C21.4955 22.3595 21.6691 22.0818 21.913 21.6416C21.9566 21.8831 21.9988 22.1228 22.0411 22.3604Z" fill="#E2E5E5"/>
  <path d="M21.1508 23.1458L19.3388 23.4743C19.2462 22.5398 19.6214 22.3594 19.6214 22.3594L19.6624 22.2495L21.0851 22.335L21.0663 22.4955C21.0229 22.656 21.1508 23.1458 21.1508 23.1458Z" fill="#FFDCB9"/>
  <path d="M8.82248 18.4326H8.22588C7.79673 18.4326 7.31689 18.0379 7.31689 17.5098V16.3242H7.54029V17.5098C7.54029 17.9162 7.90887 18.2315 8.226 18.2315H8.8226L8.82248 18.4326Z" fill="#4D4D4F"/>
  <path d="M7.65187 16.3241H7.20508V15.6702C7.20508 14.4854 8.27576 13.5215 9.59186 13.5215C10.908 13.5215 11.9788 14.4853 11.9788 15.6702V16.3115H11.532V15.6702C11.532 14.7071 10.6617 13.9237 9.59186 13.9237C8.52206 13.9237 7.65175 14.7072 7.65175 15.6702L7.65187 16.3241Z" fill="#4D4D4F"/>
  <path d="M10.8419 18.4324H10.347V18.2313H10.8419C11.2841 18.2313 11.6438 17.9075 11.6438 17.5096V16.3115H11.8671V17.5097C11.8671 18.0185 11.4072 18.4324 10.8419 18.4324Z" fill="#4D4D4F"/>
  <path d="M8.9273 18.3308C8.9273 18.1724 8.80328 18.0439 8.65022 18.0439C8.49715 18.0439 8.45911 18.1724 8.45911 18.3308C8.45911 18.4892 8.49715 18.6176 8.65022 18.6176C8.80328 18.6176 8.9273 18.4892 8.9273 18.3308Z" fill="#4D4D4F"/>
  <path d="M10.144 18.3308C10.144 18.4892 10.2681 18.6176 10.4211 18.6176C10.5742 18.6176 10.6122 18.4892 10.6122 18.3308C10.6122 18.1724 10.5742 18.0439 10.4211 18.0439C10.2682 18.0439 10.144 18.1724 10.144 18.3308Z" fill="#4D4D4F"/>
  <path d="M19.052 15.0863H18.6335V14.0243C18.6335 11.8137 16.6358 10.0154 14.1802 10.0154C11.8723 10.0154 9.92234 11.6356 9.74087 13.704L9.32361 13.6743C9.52223 11.4113 11.6555 9.63867 14.1802 9.63867C16.8664 9.63867 19.052 11.6061 19.052 14.0243V15.0863Z" fill="#4D4D4F"/>
  <path d="M20.1397 15.9811C20.1397 15.3395 19.5619 14.8193 18.8492 14.8193C18.1364 14.8193 17.5586 15.3395 17.5586 15.9811C17.5586 16.6227 18.1364 17.1429 18.8492 17.1429C19.5619 17.1428 20.1397 16.6227 20.1397 15.9811Z" fill="#4D4D4F"/>
  <path d="M19.5781 15.9812C19.5781 15.6189 19.2519 15.3252 18.8494 15.3252C18.4469 15.3252 18.1206 15.6189 18.1206 15.9812C18.1206 16.3435 18.4469 16.6373 18.8494 16.6373C19.2517 16.6373 19.5781 16.3435 19.5781 15.9812Z" fill="#2A2A2D"/>
  <path d="M18.1206 15.9813C18.1206 16.1955 18.2351 16.385 18.4115 16.5048C18.4425 16.5084 18.474 16.511 18.5062 16.511C18.9087 16.511 19.235 16.2172 19.235 15.8549C19.235 15.6408 19.1204 15.4512 18.9441 15.3314C18.9131 15.3278 18.8815 15.3252 18.8494 15.3252C18.4469 15.3252 18.1206 15.6189 18.1206 15.9813Z" fill="#4D4D4F"/>
  <path d="M0.945199 13.7691C0.945199 13.7691 0.842324 13.5087 0.491646 13.6916C0.140969 13.8744 0.278137 14.7532 0.722178 14.7429C1.13293 14.7335 0.945199 13.7691 0.945199 13.7691Z" fill="#FFDCB9"/>
  <path d="M8.51717 10.796L2.04954 10.7179C1.35469 10.7094 0.78387 11.2098 0.774609 11.8351L0.657341 19.7039C0.648079 20.3294 1.20376 20.8432 1.89848 20.8516L8.36611 20.9296C9.06095 20.938 9.63178 20.4378 9.64104 19.8124L9.7583 11.9436C9.76769 11.3181 9.21201 10.8043 8.51717 10.796Z" fill="#EA7C0F"/>
  <path d="M8.51684 12.2199L2.68023 12.1495C2.36034 12.1456 2.09752 12.3759 2.09314 12.6639L1.99114 19.5114C1.98689 19.7994 2.2427 20.036 2.56271 20.0399L8.3992 20.1104C8.71909 20.1142 8.98191 19.8839 8.98629 19.5959L9.08829 12.7484C9.09254 12.4603 8.83673 12.2237 8.51684 12.2199Z" fill="#CC6E11"/>
  <path d="M8.18542 11.8742L2.34893 11.8038C2.02904 11.7999 1.76622 12.0302 1.76184 12.3182L1.65984 19.1657C1.65559 19.4537 1.9114 19.6903 2.23129 19.6942L8.06778 19.7646C8.38766 19.7685 8.65049 19.5382 8.65487 19.2502L8.75686 12.4027C8.76124 12.1146 8.50531 11.878 8.18542 11.8742Z" fill="white"/>
  <path d="M7.33724 11.3403L6.63939 11.3318C6.58282 10.7806 6.07183 10.3454 5.44319 10.3378L5.13569 10.3341C4.50705 10.3265 3.98328 10.7491 3.91032 11.2989L3.21247 11.2905C2.92962 11.2871 2.69634 11.5476 2.69158 11.8725L2.69033 11.9533C2.68833 12.0916 2.81123 12.2054 2.96504 12.2072L7.55726 12.2626C7.71107 12.2644 7.83735 12.1538 7.83936 12.0153L7.84061 11.9347C7.84549 11.6098 7.62009 11.3438 7.33724 11.3403ZM5.49174 11.3465C5.1711 11.5602 4.81705 11.233 5.06297 10.9501C5.38374 10.7362 5.73792 11.0636 5.49174 11.3465Z" fill="#F9CB0B"/>
  <path d="M4.36831 13.3217C4.37532 12.8492 3.95556 12.4611 3.43067 12.4547C2.90578 12.4484 2.47463 12.8262 2.46749 13.2987C2.46049 13.7712 2.88025 14.1594 3.40514 14.1658C3.93003 14.1722 4.3613 13.7942 4.36831 13.3217Z" fill="#FF4650"/>
  <path d="M7.96582 12.8435L5.39569 12.8125C5.3435 12.8118 5.30032 12.8498 5.29957 12.8967C5.29882 12.9436 5.341 12.9825 5.39306 12.9832L7.96319 13.0142C8.01538 13.0147 8.05856 12.9769 8.05931 12.93C8.06006 12.883 8.01788 12.8442 7.96582 12.8435Z" fill="#42423F"/>
  <path d="M7.18265 13.2702L5.38934 13.2485C5.33715 13.2479 5.29397 13.2858 5.29322 13.3327C5.29247 13.3797 5.33465 13.4186 5.38671 13.4192L7.18002 13.4409C7.23221 13.4415 7.27539 13.4036 7.27614 13.3567C7.27689 13.3098 7.23471 13.2709 7.18265 13.2702Z" fill="#42423F"/>
  <path d="M6.4364 13.6954L5.38311 13.6826C5.33093 13.682 5.28775 13.7199 5.287 13.7668C5.28625 13.8138 5.32842 13.8526 5.38049 13.8533L6.43377 13.866C6.48596 13.8667 6.52914 13.8287 6.52989 13.7819C6.53051 13.7349 6.48846 13.6959 6.4364 13.6954Z" fill="#42423F"/>
  <path d="M2.99605 15.3038C2.9958 15.3233 2.9779 15.3389 2.95625 15.3386L2.71483 15.3357C2.69318 15.3354 2.67578 15.3193 2.67616 15.2998L2.67941 15.0825C2.67966 15.063 2.69756 15.0474 2.71921 15.0477L2.96063 15.0506C2.98228 15.0508 2.99968 15.067 2.9993 15.0864L2.99605 15.3038ZM3.00406 14.918L2.67966 14.9141C2.59957 14.9131 2.53311 14.9713 2.53198 15.0435L2.5276 15.3355C2.52648 15.4076 2.59118 15.4675 2.6714 15.4685L2.9958 15.4724C3.0759 15.4734 3.14235 15.4152 3.14348 15.343L3.14786 15.051C3.14886 14.9787 3.08416 14.9189 3.00406 14.918Z" fill="#42423F"/>
  <path d="M2.97883 16.423C2.97858 16.4425 2.96069 16.4582 2.93903 16.4578L2.69761 16.4549C2.67609 16.4547 2.65857 16.4386 2.65894 16.4191L2.6622 16.2018C2.66245 16.1823 2.68034 16.1666 2.702 16.1669L2.94341 16.1699C2.96507 16.1701 2.98246 16.1862 2.98209 16.2057L2.97883 16.423ZM2.98684 16.0372L2.66245 16.0332C2.58235 16.0322 2.51589 16.0904 2.51477 16.1627L2.51039 16.4547C2.50939 16.5268 2.57396 16.5866 2.65419 16.5876L2.97858 16.5916C3.05868 16.5926 3.12514 16.5343 3.12626 16.4621L3.13064 16.1701C3.13164 16.098 3.06694 16.0382 2.98684 16.0372Z" fill="#42423F"/>
  <path d="M2.96309 17.5422C2.96284 17.5615 2.94494 17.5773 2.92329 17.577L2.68187 17.574C2.66022 17.5738 2.64282 17.5577 2.6432 17.5382L2.64645 17.3209C2.6467 17.3014 2.6646 17.2857 2.68625 17.2861L2.92767 17.289C2.94932 17.2892 2.96672 17.3054 2.96634 17.3248L2.96309 17.5422ZM2.9711 17.1563L2.6467 17.1524C2.56661 17.1513 2.50015 17.2096 2.49902 17.2818L2.49464 17.5738C2.49352 17.6459 2.55822 17.7058 2.63844 17.7068L2.96284 17.7107C3.04294 17.7117 3.10939 17.6535 3.11052 17.5813L3.1149 17.2892C3.1159 17.2171 3.0512 17.1573 2.9711 17.1563Z" fill="#42423F"/>
  <path d="M2.946 18.6612C2.94575 18.6807 2.92785 18.6963 2.9062 18.696L2.66478 18.6931C2.64313 18.6928 2.62573 18.6767 2.62611 18.6572L2.62936 18.4399C2.62961 18.4204 2.64751 18.4048 2.66916 18.4051L2.91058 18.408C2.93211 18.4083 2.94963 18.4244 2.94925 18.4439L2.946 18.6612ZM2.95401 18.2754L2.62961 18.2715C2.54952 18.2706 2.48306 18.3287 2.48193 18.4009L2.47755 18.693C2.47643 18.7651 2.54113 18.8249 2.62135 18.8259L2.94575 18.8298C3.02585 18.8309 3.0923 18.7726 3.09343 18.7004L3.09781 18.4084C3.09893 18.3362 3.03423 18.2763 2.95401 18.2754Z" fill="#42423F"/>
  <path d="M2.68251 14.9008L2.84446 15.0507L3.22042 14.7211C3.26497 14.682 3.33631 14.6829 3.37973 14.7231C3.42316 14.7632 3.42216 14.8274 3.37761 14.8664L2.84533 15.3328L2.52669 15.0369C2.48615 14.9993 2.48589 14.9396 2.52594 14.9016C2.5685 14.8615 2.63946 14.8612 2.68251 14.9008Z" fill="#FF4650"/>
  <path d="M2.64918 17.1577L2.81113 17.3075L3.18721 16.978C3.23177 16.9389 3.3031 16.9398 3.34653 16.9799C3.38996 17.02 3.38896 17.0842 3.3444 17.1233L2.81213 17.5897L2.49349 17.2939C2.45294 17.2562 2.45269 17.1965 2.49274 17.1586C2.53517 17.1183 2.60625 17.1179 2.64918 17.1577Z" fill="#FF4650"/>
  <path d="M6.2906 15.1556L3.67916 15.124C3.63448 15.1235 3.59731 15.156 3.59669 15.1962C3.59606 15.2365 3.63223 15.2699 3.67691 15.2705L6.28834 15.302C6.33302 15.3026 6.37019 15.27 6.37082 15.2298C6.37144 15.1895 6.3354 15.1561 6.2906 15.1556Z" fill="#42423F"/>
  <path d="M5.43335 16.2919L3.66232 16.2705C3.61764 16.27 3.58047 16.3025 3.57984 16.3427C3.57922 16.383 3.61539 16.4164 3.66006 16.417L5.4311 16.4384C5.47578 16.4389 5.51295 16.4064 5.51357 16.3662C5.5142 16.3259 5.47803 16.2925 5.43335 16.2919Z" fill="#42423F"/>
  <path d="M6.21172 17.4162L3.64547 17.3853C3.60067 17.3847 3.56362 17.4173 3.563 17.4575C3.56237 17.4977 3.59854 17.5312 3.64322 17.5316L6.20947 17.5626C6.25415 17.5632 6.29132 17.5306 6.29195 17.4904C6.29257 17.4502 6.2564 17.4168 6.21172 17.4162Z" fill="#42423F"/>
  <path d="M5.58123 18.5231L3.62948 18.4995C3.5848 18.499 3.54763 18.5315 3.54701 18.5717C3.54638 18.612 3.58255 18.6454 3.62723 18.646L5.57898 18.6695C5.62366 18.6701 5.66083 18.6375 5.66133 18.5973C5.66208 18.557 5.62591 18.5236 5.58123 18.5231Z" fill="#42423F"/>
  <path d="M1.73189 14.3726L1.71662 15.3967L0.717407 15.723L0.742062 14.02C1.11389 14.0908 1.4528 14.2281 1.73189 14.3726Z" fill="#CC6E11"/>
  <path d="M0.652295 14.5615C0.380839 14.5961 2.78038e-08 14.9179 2.78038e-08 15.6159C-0.000125125 16.8067 0.422265 17.1645 1.13238 17.211C1.8425 17.2575 2.07515 16.3366 2.07853 15.5433C2.08254 14.5805 1.01699 14.5151 0.652295 14.5615Z" fill="#FFDCB9"/>
  <path d="M3.96495 13.1055H3.63618V12.8096H3.20878V13.1055H2.88V13.4902H3.20878V13.7861H3.63618V13.4902H3.96495V13.1055Z" fill="white"/>
  <path d="M16.3452 8.89551L14.3834 9.00107L12.4216 8.89551L12.392 10.5567C12.392 10.5567 13.461 11.733 14.3834 11.5463C15.3058 11.7331 16.3748 10.5567 16.3748 10.5567L16.3452 8.89551Z" fill="#FFDCB9"/>
  <path d="M16.3588 9.65104C15.7384 10.0174 14.9948 10.294 14.2559 10.2898C13.605 10.2867 12.9599 10.065 12.4064 9.76303L12.4169 9.16761C12.9447 9.49805 13.5991 9.75886 14.2594 9.76201C15.0088 9.76618 15.7653 9.4389 16.3482 9.04199L16.3588 9.65104Z" fill="#F7BC86"/>
  <path d="M17.51 5.02923C17.51 5.02923 18.0303 4.50108 18.5086 4.9818C19.0329 5.50872 18.0665 6.66283 17.5043 6.37114L17.51 5.02923Z" fill="#F7BC86"/>
  <path d="M17.9242 5.92487C17.8971 5.92487 17.8724 5.9083 17.8657 5.88352C17.8577 5.85434 17.8774 5.82482 17.9099 5.81761C17.9093 5.81761 17.9932 5.79046 18.0907 5.62485C18.1821 5.46949 17.9784 5.31097 17.9764 5.3094C17.951 5.2899 17.9479 5.25566 17.9693 5.23267C17.9908 5.2098 18.0286 5.20676 18.0544 5.22625C18.0659 5.23493 18.3347 5.44256 18.1976 5.67566C18.0727 5.88803 17.9523 5.92025 17.939 5.92318C17.934 5.92442 17.9291 5.92487 17.9242 5.92487Z" fill="#E0AD83"/>
  <path d="M11.0198 5.02923C11.0198 5.02923 10.4995 4.50108 10.0212 4.9818C9.49694 5.50872 10.4634 6.66283 11.0256 6.37114L11.0198 5.02923Z" fill="#F7BC86"/>
  <path d="M10.5966 5.92516C10.5919 5.92516 10.5871 5.92459 10.5822 5.92358C10.5689 5.92054 10.4485 5.88843 10.3237 5.67606C10.1865 5.44297 10.4553 5.23533 10.4669 5.22666C10.4925 5.20728 10.5303 5.21032 10.552 5.23308C10.5735 5.25595 10.5704 5.29031 10.5448 5.3098C10.5428 5.31138 10.3392 5.46989 10.4306 5.62525C10.5286 5.79177 10.6127 5.81835 10.6135 5.81858C10.6444 5.82771 10.6628 5.85756 10.6538 5.88561C10.6462 5.90939 10.6228 5.92516 10.5966 5.92516Z" fill="#E0AD83"/>
  <path d="M11.3419 1.28029C11.3419 1.28029 9.94711 1.09383 10.0721 3.90823C10.1312 5.23831 10.5134 6.55116 11.809 6.70145C11.809 6.70145 17.551 7.06095 17.9393 5.99326C18.3277 4.92556 18.6127 3.1214 18.2241 2.14418C17.8353 1.16695 16.6015 0.498302 15.7463 0.372909C14.8911 0.24763 14.2819 0.540438 14.2819 0.540438C14.2819 0.540438 14.7627 0.265431 15.16 0.171246C15.4638 0.0992548 14.1002 -0.369868 12.0827 0.640594C11.6586 0.853299 11.228 1.24716 11.3419 1.28029Z" fill="#422C19"/>
  <path d="M17.708 5.69794C17.6762 6.22294 17.6126 6.85024 17.4818 7.39947C17.4818 7.39947 17.4818 7.39946 17.4818 7.40059C17.3669 7.88819 17.1982 8.31292 16.9549 8.55177C16.3717 9.12296 15.3093 9.76795 14.2603 9.76243C13.21 9.75691 12.1734 9.09987 11.6427 8.55177C11.375 8.27552 11.1928 7.87715 11.0705 7.4336C10.9141 6.86894 10.8541 6.23285 10.837 5.6914C10.8137 4.97386 10.8651 4.4225 10.8651 4.4225C11.4874 2.97637 12.9264 2.79915 13.8972 2.71995C16.7471 2.48663 17.7325 4.56231 17.7325 4.56231C17.7325 4.56231 17.7446 5.05295 17.708 5.69794Z" fill="#FFDCB9"/>
  <path d="M10.8373 4.89253C10.8373 4.89253 11.5475 5.10873 11.8491 3.5362C11.8491 3.5362 12.4192 4.42262 13.4039 4.35266C13.4039 4.35266 12.5747 3.83948 12.5228 3.23303C12.5228 3.23303 15.4618 5.19998 17.5866 4.94345L17.9399 4.7801C17.9399 4.7801 17.9019 3.95158 17.4721 3.60616C16.7466 3.02302 15.1659 2.1366 13.7666 2.32317C12.5679 2.48304 11.2493 2.89065 10.816 4.1662C10.7435 4.37958 10.7929 4.64738 10.8373 4.89253Z" fill="#422C19"/>
  <path d="M13.5875 5.06738H12.3536C12.2778 5.06738 12.2157 5.12326 12.2157 5.19154V5.21441C12.2157 5.28268 12.2778 5.33867 12.3536 5.33867H13.5875C13.6633 5.33867 13.7255 5.28279 13.7255 5.21441V5.19154C13.7255 5.12326 13.6635 5.06738 13.5875 5.06738Z" fill="#3E2722"/>
  <path d="M13.2313 5.78009C13.2313 5.90323 13.1204 6.00304 12.9836 6.00304C12.8469 6.00304 12.7358 5.90323 12.7358 5.78009C12.7358 5.65695 12.8467 5.55713 12.9836 5.55713C13.1204 5.55713 13.2313 5.65695 13.2313 5.78009Z" fill="#3E2722"/>
  <path d="M16.0415 5.06738H14.8076C14.7318 5.06738 14.6697 5.12326 14.6697 5.19154V5.21441C14.6697 5.28268 14.7318 5.33867 14.8076 5.33867H16.0415C16.1173 5.33867 16.1794 5.28279 16.1794 5.21441V5.19154C16.1795 5.12326 16.1174 5.06738 16.0415 5.06738Z" fill="#3E2722"/>
  <path d="M15.6283 5.78009C15.6283 5.90323 15.5174 6.00304 15.3806 6.00304C15.2438 6.00304 15.1328 5.90323 15.1328 5.78009C15.1328 5.65695 15.2437 5.55713 15.3806 5.55713C15.5174 5.55713 15.6283 5.65695 15.6283 5.78009Z" fill="#3E2722"/>
  <path d="M14.4908 6.90166C14.4908 6.81289 14.3326 6.65088 14.1376 6.65088C13.9425 6.65088 13.7844 6.81289 13.7844 6.90166C13.7844 6.99044 13.9426 7.00768 14.1376 7.00768C14.3326 7.00768 14.4908 6.99044 14.4908 6.90166Z" fill="#F7BC86"/>
  <path d="M13.3417 7.65039C13.2158 7.65039 13.1199 7.75674 13.1509 7.86648C13.2744 8.30484 13.7148 8.62931 14.2403 8.62931C14.7658 8.62931 15.2061 8.30484 15.3296 7.86648C15.3606 7.75663 15.2647 7.65039 15.1388 7.65039H13.3417Z" fill="#422C19"/>
  <path d="M14.9642 7.90974C15.0568 7.90974 15.1318 7.84214 15.1318 7.75888V7.65039H13.3698V7.75888C13.3698 7.84214 13.4448 7.90974 13.5373 7.90974H14.9642Z" fill="white"/>
  <path d="M13.6412 8.47258C13.8147 8.57138 14.0198 8.62917 14.2405 8.62917C14.4805 8.62917 14.7023 8.5609 14.8848 8.44554C14.8016 8.30843 14.5599 8.2085 14.271 8.2085C13.9631 8.2085 13.7067 8.3215 13.6412 8.47258Z" fill="#FF5A72"/>
  <g opacity="0.5">
    <path opacity="0.47" d="M14.1242 6.55107C14.1242 7.10468 13.1522 7.55263 11.954 7.55263C11.6508 7.55263 11.3623 7.52401 11.1006 7.4723C11.0896 7.45912 11.0786 7.44594 11.0701 7.43377C10.9136 6.86911 10.8537 6.23302 10.8365 5.69157C11.1629 5.59907 11.5457 5.54736 11.954 5.54736C13.1521 5.54725 14.1242 5.99632 14.1242 6.55107Z" fill="url(#paint2_radial_1698_1833)"/>
    <path opacity="0.47" d="M17.7074 5.6981C17.6756 6.22311 17.612 6.85041 17.4812 7.39963C17.4812 7.39963 17.4812 7.39963 17.4812 7.40076C17.4653 7.42385 17.447 7.44695 17.4274 7.47117C17.1646 7.52401 16.8723 7.55263 16.568 7.55263C15.3686 7.55263 14.3978 7.10468 14.3978 6.55107C14.3978 5.99632 15.3686 5.54736 16.568 5.54736C16.9861 5.54725 17.3761 5.60234 17.7074 5.6981Z" fill="url(#paint3_radial_1698_1833)"/>
  </g>
  <defs>
    <radialGradient id="paint0_radial_1698_1833" cx="0" cy="0" r="1" gradientUnits="userSpaceOnUse" gradientTransform="translate(32.8099 8.8234) scale(1.27751 1.15)">
      <stop stop-color="#FF4A4A"/>
      <stop offset="1" stop-color="#FFAC68" stop-opacity="0"/>
    </radialGradient>
    <radialGradient id="paint1_radial_1698_1833" cx="0" cy="0" r="1" gradientUnits="userSpaceOnUse" gradientTransform="translate(36.0093 8.82351) scale(1.3229 1.19087)">
      <stop stop-color="#FF4A4A"/>
      <stop offset="1" stop-color="#FFAC68" stop-opacity="0"/>
    </radialGradient>
    <radialGradient id="paint2_radial_1698_1833" cx="0" cy="0" r="1" gradientUnits="userSpaceOnUse" gradientTransform="translate(12.4804 6.54992) scale(1.40402 1.26389)">
      <stop stop-color="#FF4A4A"/>
      <stop offset="1" stop-color="#FFAC68" stop-opacity="0"/>
    </radialGradient>
    <radialGradient id="paint3_radial_1698_1833" cx="0" cy="0" r="1" gradientUnits="userSpaceOnUse" gradientTransform="translate(16.0526 6.54992) scale(1.41047 1.2697)">
      <stop stop-color="#FF4A4A"/>
      <stop offset="1" stop-color="#FFAC68" stop-opacity="0"/>
    </radialGradient>
  </defs>
</svg>