<svg xmlns="http://www.w3.org/2000/svg" width="34" height="34" viewBox="0 0 34 34" fill="none">
<path d="M1.41667 28.3333V26.9167C1.41667 24.2866 2.46146 21.7643 4.32119 19.9045C6.18093 18.0448 8.70327 17 11.3333 17C13.9634 17 16.4857 18.0448 18.3455 19.9045C20.2052 21.7643 21.25 24.2866 21.25 26.9167V28.3333" stroke="white" stroke-width="1.5" stroke-linecap="round"/>
<path d="M18.4167 19.8333C18.4167 17.9547 19.1629 16.153 20.4913 14.8247C21.8197 13.4963 23.6214 12.75 25.5 12.75C26.4302 12.75 27.3513 12.9332 28.2107 13.2892C29.0701 13.6452 29.8509 14.1669 30.5087 14.8247C31.1664 15.4824 31.6882 16.2633 32.0441 17.1227C32.4001 17.982 32.5833 18.9031 32.5833 19.8333V20.5417" stroke="white" stroke-width="1.5" stroke-linecap="round"/>
<path d="M11.3333 17C12.8362 17 14.2776 16.403 15.3403 15.3403C16.403 14.2776 17 12.8362 17 11.3333C17 9.83044 16.403 8.3891 15.3403 7.32639C14.2776 6.26369 12.8362 5.66667 11.3333 5.66667C9.83044 5.66667 8.3891 6.26369 7.32639 7.32639C6.26369 8.3891 5.66667 9.83044 5.66667 11.3333C5.66667 12.8362 6.26369 14.2776 7.32639 15.3403C8.3891 16.403 9.83044 17 11.3333 17ZM25.5 12.75C26.6272 12.75 27.7082 12.3022 28.5052 11.5052C29.3022 10.7082 29.75 9.62717 29.75 8.5C29.75 7.37283 29.3022 6.29183 28.5052 5.4948C27.7082 4.69777 26.6272 4.25 25.5 4.25C24.3728 4.25 23.2918 4.69777 22.4948 5.4948C21.6978 6.29183 21.25 7.37283 21.25 8.5C21.25 9.62717 21.6978 10.7082 22.4948 11.5052C23.2918 12.3022 24.3728 12.75 25.5 12.75Z" stroke="white" stroke-width="1.5" stroke-linecap="round" stroke-linejoin="round"/>
</svg>