<svg xmlns="http://www.w3.org/2000/svg" width="60" height="60" viewBox="0 0 60 60" fill="none">
  <g clip-path="url(#clip0_2312_2534)">
    <path d="M30 13.125C33.6244 13.125 36.5625 10.1869 36.5625 6.5625C36.5625 2.93813 33.6244 0 30 0C26.3756 0 23.4375 2.93813 23.4375 6.5625C23.4375 10.1869 26.3756 13.125 30 13.125Z" fill="black"/>
    <path d="M51.2109 15.0001H8.78906C7.9499 15.0001 7.14511 15.3335 6.55173 15.9268C5.95836 16.5202 5.625 17.325 5.625 18.1642C5.625 19.0033 5.95836 19.8081 6.55173 20.4015C7.14511 20.9949 7.9499 21.3282 8.78906 21.3282H20.7281C21.5379 21.3282 22.4859 21.6903 23.0227 23.086C23.6496 24.7067 23.3426 27.8368 22.9559 30.2614L22.4496 33.1267C22.4506 33.1341 22.4498 33.1417 22.4473 33.1488C22.4449 33.1559 22.4409 33.1624 22.4355 33.1677L18.3809 56.2313C18.2338 57.0686 18.4244 57.9299 18.9108 58.627C19.3973 59.3241 20.14 59.8001 20.9766 59.9509C21.3901 60.024 21.8141 60.0143 22.2239 59.9222C22.6337 59.8302 23.0211 59.6576 23.3637 59.4146C23.7062 59.1716 23.9971 58.863 24.2194 58.5066C24.4417 58.1503 24.591 57.7533 24.6586 57.3388L27.4605 41.3075C27.4605 41.3075 28.3594 37.5001 30 37.5001C31.6676 37.5001 32.5477 41.3075 32.5477 41.3075L35.3496 57.3528C35.4174 57.771 35.5677 58.1715 35.7918 58.531C36.016 58.8905 36.3094 59.2018 36.6551 59.4467C37.0007 59.6916 37.3917 59.8653 37.8051 59.9576C38.2186 60.0499 38.6463 60.059 39.0633 59.9843C39.4803 59.9097 39.8782 59.7528 40.234 59.5227C40.5897 59.2927 40.8961 58.9942 41.1353 58.6446C41.3745 58.2949 41.5417 57.9012 41.6272 57.4862C41.7127 57.0713 41.7147 56.6435 41.6332 56.2278L37.5773 33.1642C37.5782 33.1568 37.5775 33.1493 37.5753 33.1423C37.573 33.1352 37.5694 33.1287 37.5645 33.1231L37.057 30.2579C36.6703 27.8333 36.3633 24.7032 36.9902 23.0825C37.5246 21.6903 38.5031 21.3247 39.2496 21.3247H51.2109C52.0501 21.3247 52.8549 20.9914 53.4483 20.398C54.0416 19.8046 54.375 18.9998 54.375 18.1606C54.375 17.3215 54.0416 16.5167 53.4483 15.9233C52.8549 15.3299 52.0501 14.9966 51.2109 14.9966V15.0001Z" fill="black"/>
  </g>
  <defs>
    <clipPath id="clip0_2312_2534">
      <rect width="60" height="60" fill="white"/>
    </clipPath>
  </defs>
</svg>